<svg xmlns="http://www.w3.org/2000/svg" width="64" height="64" viewBox="0 0 64 64" id="cinema"><path style="text-indent:0;text-align:start;line-height:normal;text-transform:none;block-progression:tb;marker:none;-inkscape-font-specification:Sans" d="M40.985 1021.333a.5.5 0 0 0-.438.531v26a.5.5 0 1 0 1 0v-26a.5.5 0 0 0-.562-.531zm7 0a.519.519 0 0 0-.438.531v4c0 .823.678 1.5 1.5 1.5h10c.823 0 1.5-.677 1.5-1.5v-4a.513.513 0 0 0-.5-.5c-7.968 0-5.688-.03-12.062-.03zm19 0a.5.5 0 0 0-.438.531v26a.5.5 0 1 0 1 0v-26a.5.5 0 0 0-.562-.531zm-24.094 1.031a.515.515 0 0 0-.344.5v3c0 .262.239.5.5.5h3a.52.52 0 0 0 .5-.5v-3a.52.52 0 0 0-.5-.5h-3a.41.41 0 0 0-.156 0zm19 0a.515.515 0 0 0-.344.5v3c0 .262.239.5.5.5h3a.52.52 0 0 0 .5-.5v-3a.52.52 0 0 0-.5-.5h-3a.41.41 0 0 0-.156 0zm-19 5a.515.515 0 0 0-.344.5v3c0 .262.239.5.5.5h3a.52.52 0 0 0 .5-.5v-3a.52.52 0 0 0-.5-.5h-3a.41.41 0 0 0-.156 0zm19 0a.515.515 0 0 0-.344.5v3c0 .262.239.5.5.5h3a.52.52 0 0 0 .5-.5v-3a.52.52 0 0 0-.5-.5h-3a.41.41 0 0 0-.156 0zm-11.844 1a2.506 2.506 0 0 0-2.5 2.5v7c0 1.377 1.124 2.5 2.5 2.5h8c1.377 0 2.5-1.123 2.5-2.5v-7c0-1.376-1.123-2.5-2.5-2.5h-8zm-7.156 4a.515.515 0 0 0-.344.5v3c0 .262.239.5.5.5h3a.52.52 0 0 0 .5-.5v-3a.52.52 0 0 0-.5-.5h-3a.41.41 0 0 0-.156 0zm19 0a.515.515 0 0 0-.344.5v3c0 .262.239.5.5.5h3a.52.52 0 0 0 .5-.5v-3a.52.52 0 0 0-.5-.5h-3a.41.41 0 0 0-.156 0zm-19 5a.515.515 0 0 0-.344.5v3c0 .262.239.5.5.5h3a.52.52 0 0 0 .5-.5v-3a.52.52 0 0 0-.5-.5h-3a.41.41 0 0 0-.156 0zm19 0a.515.515 0 0 0-.344.5v3c0 .262.239.5.5.5h3a.52.52 0 0 0 .5-.5v-3a.52.52 0 0 0-.5-.5h-3a.41.41 0 0 0-.156 0zm-12.844 4c-.822 0-1.5.678-1.5 1.5v5c-.004.264.236.531.5.531h12c.265 0 .504-.267.5-.53v-5c0-.823-.677-1.5-1.5-1.5h-10zm-6.156 1a.515.515 0 0 0-.344.5v3c0 .262.239.5.5.5h3a.52.52 0 0 0 .5-.5v-3a.52.52 0 0 0-.5-.5h-3a.41.41 0 0 0-.156 0zm19 0a.515.515 0 0 0-.344.5v3c0 .262.239.5.5.5h3a.52.52 0 0 0 .5-.5v-3a.52.52 0 0 0-.5-.5h-3a.41.41 0 0 0-.156 0z" font-family="Sans" font-weight="200" overflow="visible" transform="translate(-36.047 -1016.862)"></path></svg>